HIERARCHY
ROOT Hips
{
	OFFSET 0.000000 0.000000 0.000000 
	CHANNELS 6 Xposition Yposition Zposition Yrotation Zrotation Xrotation 
	JOINT Lumbar
	{
		OFFSET 0.000000 0.000000 0.000000 
		CHANNELS 3 Zrotation Xrotation Yrotation
		JOINT Neck
		{
			OFFSET 0.000000 0.445665 0.000000 
			CHANNELS 3 Zrotation Xrotation Yrotation
			End Site
			{
				OFFSET 0.000000 0.227535 0.000000 
			}
		}
		JOINT RightShoulder
		{
			OFFSET 0.019635 0.377685 0.194865 
			CHANNELS 3 Zrotation Xrotation Yrotation
			JOINT RightElbow
			{
				OFFSET 0.000000 -0.243375 0.000000 
				CHANNELS 2 Zrotation Yrotation
				JOINT RightWrist
				{
					OFFSET 0.000000 -0.264825 0.000000 
					CHANNELS 2 Zrotation Xrotation
					End Site
					{
						OFFSET 0.006600 -0.176220 0.000990 
					}
				}
			}
		}
		JOINT LeftShoulder
		{
			OFFSET 0.019635 0.377685 -0.194865 
			CHANNELS 3 Zrotation Xrotation Yrotation
			JOINT LeftElbow
			{
				OFFSET 0.000000 -0.243375 0.000000 
				CHANNELS 2 Zrotation Yrotation
				JOINT LeftWrist
				{
					OFFSET 0.000000 -0.264825 0.000000 
					CHANNELS 2 Zrotation Xrotation
					End Site
					{
						OFFSET 0.006600 -0.176220 -0.000990 
					}
				}
			}
		}
	}
	JOINT RightHip
	{
		OFFSET 0.052140 -0.069960 0.075570 
		CHANNELS 3 Zrotation Xrotation Yrotation
		JOINT RightKnee
		{
			OFFSET 0.000000 -0.402270 0.000000 
			CHANNELS 1 Zrotation
			JOINT RightAnkle
			{
				OFFSET 0.000000 -0.404085 0.000000 
				CHANNELS 3 Zrotation Xrotation Yrotation
				End Site
				{
					OFFSET 0.204105 -0.089430 0.008415 
				}
			}
		}
	}
	JOINT LeftHip
	{
		OFFSET 0.052140 -0.069960 -0.075570 
		CHANNELS 3 Zrotation Xrotation Yrotation
		JOINT LeftKnee
		{
			OFFSET 0.000000 -0.402270 0.000000 
			CHANNELS 1 Zrotation
			JOINT LeftAnkle
			{
				OFFSET 0.000000 -0.404085 0.000000 
				CHANNELS 3 Zrotation Xrotation Yrotation
				End Site
				{
					OFFSET 0.204105 -0.089430 -0.008415 
				}
			}
		}
	}
}
MOTION
Frames: 13
Frame Time: 0.02
0.02193 -0.00564 -0.00043 -125.54887 -25.75971 -4.22183 37.0161 3.53845 -14.71691 -17.50997 9.68885 -1.59949 -12.83728 -16.27223 -2.42362 32.92155 82.34526 -1.01634 2.6655 -14.52138 21.58107 -15.13453 53.5226 -83.39653 -0.56936 -0.63078 41.98804 -7.48963 1.77731 -20.37615 -9.2853 0.32984 -2.18751 24.84981 12.82363 10.72186 -27.09649 -6.70529 2.27474 3.34619
0.03026 -0.00508 -0.00298 -126.45515 -25.92624 -4.38353 37.06937 3.36065 -14.58368 -17.42503 9.1748 -1.60116 -13.43052 -15.87404 -2.03458 32.73622 83.54249 -0.54471 2.80832 -14.64094 21.67095 -15.02418 52.62479 -83.55972 -0.42512 -0.6429 42.48241 -7.3769 1.0433 -20.30603 -9.40381 0.13785 -2.28751 25.50564 12.43789 10.20126 -27.27727 -6.74862 2.37223 3.3958
0.03857 -0.00452 -0.00552 -127.35897 -26.09196 -4.54483 37.1222 3.18329 -14.45062 -17.34051 8.66165 -1.60283 -14.02356 -15.47704 -1.64563 32.55224 84.73446 -0.07448 2.94986 -14.7603 21.7599 -14.91304 51.72721 -83.72229 -0.28145 -0.65513 42.97434 -7.26429 0.3112 -20.2365 -9.52188 -0.05336 -2.38711 26.1594 12.05324 9.68247 -27.45727 -6.79187 2.46942 3.44527
0.04688 -0.00397 -0.00806 -128.26254 -26.25794 -4.70605 37.17525 3.00602 -14.31777 -17.25585 8.14906 -1.60449 -14.61521 -15.08006 -1.25761 32.36758 85.92769 0.3957 3.09208 -14.8795 21.84941 -14.8029 50.83174 -83.88496 -0.13766 -0.66711 43.46706 -7.15187 -0.4206 -20.16667 -9.64002 -0.24473 -2.48679 26.81322 11.66868 9.16352 -27.63746 -6.83507 2.56661 3.49473
0.05521 -0.00341 -0.0106 -129.16839 -26.42483 -4.86762 37.22886 2.82834 -14.1848 -17.17074 7.63583 -1.60613 -15.20651 -14.68192 -0.86993 32.18138 87.12692 0.86727 3.23597 -14.99891 21.94003 -14.69384 49.93703 -84.04826 0.0067 -0.67927 43.96252 -7.03943 -1.15417 -20.09609 -9.75861 -0.43694 -2.58691 27.46908 11.28304 8.64265 -27.81853 -6.87833 2.66408 3.54433
0.06349 -0.00285 -0.01314 -130.06787 -26.58805 -5.02834 37.28008 2.65167 -14.05153 -17.0875 7.12288 -1.60787 -15.80321 -14.28737 -0.47834 32.00212 88.30365 1.33465 3.37261 -15.1182 22.02544 -14.57829 49.03351 -84.2093 0.14887 -0.69182 44.44699 -6.92648 -1.88316 -20.02874 -9.87559 -0.62606 -2.68543 28.11835 10.90051 8.12824 -27.99626 -6.92154 2.7607 3.59351
0.07185 -0.0023 -0.01569 -130.97929 -26.75853 -5.19062 37.336 2.47318 -13.91912 -17.00052 6.60992 -1.60942 -16.38818 -13.88598 -0.09504 31.80886 89.52387 1.80993 3.52346 -15.2374 22.12136 -14.47623 48.14861 -84.37472 0.29543 -0.7027 44.95312 -6.81463 -2.6205 -19.95506 -9.99572 -0.82115 -2.78703 28.78026 10.51219 7.60153 -28.18047 -6.96483 2.85892 3.64348
0.08014 -0.00174 -0.01822 -131.87948 -26.9222 -5.3514 37.38766 2.29634 -13.78572 -16.9171 6.09701 -1.61113 -16.98437 -13.49098 0.2959 31.62892 90.70487 2.27794 3.66164 -15.35706 22.2074 -14.36119 47.24673 -84.5361 0.43766 -0.71672 45.43909 -6.70189 -3.35026 -19.88706 -10.11286 -1.01081 -2.88583 29.43033 10.12911 7.08591 -28.35879 -7.00802 2.95567 3.69273
0.08835 -0.00118 -0.02077 -132.76722 -27.07804 -5.51068 37.43378 2.12154 -13.6518 -16.83756 5.58365 -1.61309 -17.59321 -13.10328 0.69657 31.46371 91.83463 2.73721 3.78251 -15.47585 22.28201 -14.23216 46.3225 -84.69257 0.57576 -0.72824 45.90119 -6.58745 -4.07064 -19.82667 -10.22669 -1.1936 -2.98109 30.06694 9.75264 6.58469 -28.52963 -7.05118 3.05065 3.74108
0.09703 -0.00064 -0.02331 -133.7305 -27.28041 -5.6796 37.51077 1.93504 -13.52293 -16.73431 5.07131 -1.61377 -18.12609 -12.67204 1.04245 31.2091 93.24927 3.24721 3.99747 -15.59533 22.42432 -14.18924 45.52201 -84.87739 0.74114 -0.73511 46.50298 -6.48094 -4.84468 -19.72449 -10.3606 -1.4152 -3.09636 30.78403 9.33873 6.00315 -28.74265 -7.09478 3.15591 3.79457
0.10471 -6e-05 -0.02584 -134.53181 -27.3837 -5.82751 37.5233 1.77324 -13.38214 -16.68196 4.55795 -1.61707 -18.82103 -12.33368 1.503 31.14601 94.06934 3.64985 4.01753 -15.7161 22.42263 -13.96121 44.46388 -85.00233 0.84671 -0.76393 46.80861 -6.35892 -5.5056 -19.70916 -10.45152 -1.55541 -3.16965 31.32934 9.00351 5.58946 -28.86722 -7.13728 3.23941 3.8372
0.10975 0.00065 -0.02842 -134.90567 -27.22017 -5.92268 37.35225 1.6796 -13.21857 -16.76347 4.03247 -1.62813 -19.95011 -12.24408 2.28908 31.58924 93.18837 3.75778 3.46746 -15.81875 22.03143 -13.24899 42.66414 -84.96165 0.80575 -0.75007 46.30603 -6.18359 -5.85133 -19.94555 -10.42858 -1.46614 -3.12481 31.41569 8.889 5.65459 -28.74251 -7.17826 3.263 3.85
0.11377 0.00139 -0.03096 -135.11358 -26.9566 -5.9958 37.11814 1.61068 -13.04115 -16.89714 3.50792 -1.64172 -21.2431 -12.24877 3.18798 32.2277 91.72328 3.75792 2.72815 -15.92715 21.49483 -12.34729 40.61316 -84.86099 0.70194 -0.77466 45.50591 -5.99458 -6.08352 -20.26677 -10.36179 -1.29632 -3.03837 31.32764 8.85279 5.88523 -28.5303 -7.21783 3.26473 3.85188
